<svg width="150" height="150" viewBox="0 0 150 150" fill="none" xmlns="http://www.w3.org/2000/svg">
<path d="M141 76.5625C141 71.6875 140.563 67 139.75 62.5H75V89.0938H112C110.406 97.6875 105.563 104.969 98.2813 109.844V127.094H120.5C133.5 115.125 141 97.5 141 76.5625Z" fill="#4285F4"/>
<path d="M75 143.75C93.5625 143.75 109.125 137.594 120.5 127.094L98.2813 109.844C92.125 113.969 84.25 116.406 75 116.406C57.0937 116.406 41.9375 104.312 36.5312 88.0625H13.5625V105.875C24.875 128.344 48.125 143.75 75 143.75Z" fill="#34A853"/>
<path d="M36.5313 88.0625C35.1563 83.9375 34.375 79.5313 34.375 75C34.375 70.4688 35.1563 66.0625 36.5313 61.9375V44.125H13.5625C8.75 53.7054 6.24576 64.2788 6.25001 75C6.25001 86.0938 8.90626 96.5938 13.5625 105.875L36.5313 88.0625Z" fill="#FBBC05"/>
<path d="M75 33.5938C85.0937 33.5938 94.1562 37.0625 101.281 43.875L121 24.1563C109.094 13.0625 93.5312 6.25 75 6.25C48.125 6.25 24.875 21.6562 13.5625 44.125L36.5312 61.9375C41.9375 45.6875 57.0937 33.5938 75 33.5938Z" fill="#EA4335"/>
</svg>
